<?xml version="1.0" encoding="UTF-8"?>
<svg id="Layer_2" data-name="Layer 2" xmlns="http://www.w3.org/2000/svg" viewBox="0 0 1672.71052 142.41319">
  <defs>
    <style>
      .cls-1 {
        fill: #0f0f70;
      }
    </style>
  </defs>
  <g id="Layer_1-2" data-name="Layer 1-2">
    <g>
      <path class="cls-1" d="M83.8,5.81319v50h-.2c-19.6-21.7-28.5-26.6-35.1-25.5v68.3h14.2v3H1.3v-3h9.4V30.21319L0,20.91319,48.5,4.71319v23.6c10.8-14.2,23-23,31.7-23s2.4.2,3.6.6h0s0-.1,0-.1Z"/>
      <path class="cls-1" d="M182,84.71319c-7.89999,12.1-20.60001,18.9-38.10001,18.9-26.6,0-48.5-18.5-48.5-47.8S113.8,5.41319,144,5.41319s30,10.4,30,24.2-12.10001,29.5-34.7,37.9c10.8,10.6,24.39999,17.5,37,17.5s3.8-.2,5.5-.6l.2.2h0v.1ZM118.7,23.21319c0,15.7,8.1,31.5,19.39999,43.2,5.3-6.8,7.39999-14.3,7.39999-24,0-16.4-10.89999-30.4-19.1-30.4s-7.7,4.1-7.7,11.1c0,0,0,.1,0,.1Z"/>
      <path class="cls-1" d="M301.10001,50.21319c0,33.2-18.29999,53.4-43.79999,53.4s-16.2-2.6-22.60001-6.8v42.6h15.10001v3h-62.3v-3h9.39999V29.81319l-10.8-9.2L234.60001,3.61319v18.7c10-10.2,21.70001-16.8,32.79999-16.8,19.10001,0,33.60001,15.5,33.60001,44.7h.10001ZM260.70001,60.91319c0-25.3-5.5-37.9-18.10001-37.9s-5.3.8-7.89999,1.9v68.7c2.60001,1.9,6,2.8,9.2,2.8,9.8,0,16.8-12.8,16.8-35.5Z"/>
      <path class="cls-1" d="M424.89999,50.21319c0,33.2-18.29999,53.4-43.79999,53.4s-16.20001-2.6-22.60001-6.8v42.6h15.10001v3h-62.29999v-3h9.39999V29.81319l-10.79999-9.2,48.5-17v18.7c10-10.2,21.70001-16.8,32.79999-16.8,19.10001,0,33.60001,15.5,33.60001,44.7h.09998ZM384.5,60.91319c0-25.3-5.5-37.9-18.10001-37.9s-5.29999.8-7.89999,1.9v68.7c2.60001,1.9,6,2.8,9.20001,2.8,9.79999,0,16.79999-12.8,16.79999-35.5Z"/>
    </g>
  </g>
  <g>
    <path class="cls-1" d="M577.82086,78.95831c0,16.68057-12.65026,26.27258-37.25463,26.27258h-46.42939V7.92454h43.6493c22.38059,0,34.89103,9.45292,34.89103,25.15994,0,10.56556-5.42111,17.93229-13.06675,21.68594,10.98205,3.05825,18.21045,11.25946,18.21045,24.18788ZM508.03806,19.18401v31.13887h28.4971c14.17864,0,22.24151-5.28353,22.24151-15.56943,0-10.2874-8.06288-15.56943-22.24151-15.56943h-28.4971ZM563.78055,77.84567c0-11.25946-8.34029-16.26334-23.77064-16.26334h-31.97185v32.38909h31.97185c15.43035,0,23.77064-4.86629,23.77064-16.12575Z"/>
    <path class="cls-1" d="M663.73314,72.8418h-59.7743c1.66821,12.92842,12.09394,21.54686,26.68982,21.54686,8.61845,0,15.84685-2.91918,21.26871-8.89661l7.36748,8.61845c-6.67283,7.78397-16.8204,11.95486-29.05342,11.95486-23.77064,0-39.61749-15.70851-39.61749-37.67262,0-21.82353,15.70777-37.53204,36.97647-37.53204s36.4209,15.29127,36.4209,37.94928c0,1.11264-.13908,2.7801-.27816,4.03181ZM603.95884,63.2498h47.26312c-1.39005-12.3721-10.70389-21.12963-23.63156-21.12963-12.78859,0-22.24151,8.61845-23.63156,21.12963Z"/>
    <path class="cls-1" d="M752.00829,2.08619v103.1447h-12.78934v-11.6767c-5.97743,8.34029-15.42961,12.51118-26.27258,12.51118-21.54686,0-37.25463-15.1522-37.25463-37.67262,0-22.51893,15.70777-37.53204,37.25463-37.53204,10.42573,0,19.6005,3.89273,25.71701,11.81578V2.08619h13.34491ZM738.80171,68.39275c0-15.70702-10.70314-25.85534-24.74345-25.85534-14.17864,0-24.88253,10.14832-24.88253,25.85534,0,15.70851,10.70389,25.99591,24.88253,25.99591,14.04031,0,24.74345-10.2874,24.74345-25.99591Z"/>
    <path class="cls-1" d="M816.93003,30.86071v12.92842c-1.11264-.13908-2.08545-.13908-3.05825-.13908-14.31847,0-23.21507,8.75753-23.21507,24.88178v36.69906h-13.34491V31.55611h12.78934v12.3721c4.72646-8.61845,13.90048-13.0675,26.8289-13.0675Z"/>
    <path class="cls-1" d="M830.97258,8.75902c0-4.86629,3.89198-8.75902,9.03569-8.75902,5.14295,0,9.03569,3.75365,9.03569,8.48086,0,5.00387-3.75365,8.89661-9.03569,8.89661-5.1437,0-9.03569-3.75365-9.03569-8.61845ZM833.33544,31.55611h13.34491v73.67478h-13.34491V31.55611Z"/>
    <path class="cls-1" d="M846.68184,128.58429l4.30922-10.28591c2.64102,2.22378,6.533,3.474,10.84222,3.474,7.09007,0,10.98205-4.44756,10.98205-12.92692V31.55611h13.34491v77.0112c0,15.01312-8.34029,24.46604-23.49248,24.46604-6.11651,0-12.23302-1.3908-15.98592-4.44905ZM870.45249,8.75902c0-4.86629,3.89198-8.75902,9.03494-8.75902,5.1437,0,9.03569,3.75365,9.03569,8.48086,0,5.00387-3.75291,8.89661-9.03569,8.89661-5.14295,0-9.03494-3.75365-9.03494-8.61845Z"/>
    <path class="cls-1" d="M926.61371,25.16144v6.39467h21.40778v10.9813h-21.12963v62.69348h-13.34491v-62.69348h-12.51043v-10.9813h12.51043v-6.53375c0-14.31772,8.61845-23.77064,24.32696-23.77064,5.69927,0,11.25946,1.3908,15.01312,4.30997l-4.03181,10.14683c-2.7801-2.0847-6.39392-3.47549-10.28665-3.47549-7.92305,0-11.95486,4.44905-11.95486,12.92842Z"/>
    <path class="cls-1" d="M951.36015,97.44692l5.56019-10.56556c6.25559,4.44905,16.26408,7.64639,25.85609,7.64639,12.37135,0,17.51505-3.75365,17.51505-10.00924,0-16.5415-46.56847-2.22378-46.56847-31.55461,0-13.20658,11.81578-22.10318,30.72088-22.10318,9.592,0,20.43498,2.50194,26.8289,6.67283l-5.69927,10.56407c-6.67208-4.30848-14.03956-5.83835-21.26796-5.83835-11.67745,0-17.37672,4.30997-17.37672,10.14832,0,17.37597,46.70755,3.19733,46.70755,31.83277,0,13.34566-12.23302,21.82502-31.83352,21.82502-12.23302,0-24.32621-3.75365-30.44272-8.61845Z"/>
    <path class="cls-1" d="M1152.64791,62.83256v42.39833h-13.34491v-40.86846c0-14.4568-6.95024-21.54686-19.04418-21.54686-13.34491,0-22.10243,8.47937-22.10243,24.46604v37.94928h-13.34491v-40.86846c0-14.4568-6.95099-21.54686-19.04418-21.54686-13.34491,0-22.10318,8.47937-22.10318,24.46604v37.94928h-13.34491V31.55611h12.78934v10.9813c5.28203-7.50581,14.31772-11.6767,25.43885-11.6767,11.25946,0,20.71239,4.44905,25.57718,13.62232,5.56094-8.34029,15.84759-13.62232,28.35802-13.62232,17.93229,0,30.16531,10.2874,30.16531,31.97185Z"/>
    <path class="cls-1" d="M1235.64477,60.74786v44.48303h-12.65026v-9.73108c-4.44905,6.67283-12.65026,10.56556-24.18788,10.56556-16.68132,0-27.24614-8.89661-27.24614-21.68594,0-11.81578,7.64564-21.54686,29.60899-21.54686h21.12963v-2.64102c0-11.25946-6.53375-17.79321-19.73958-17.79321-8.75753,0-17.65413,3.05825-23.3534,7.92454l-5.56019-10.00924c7.64564-6.11651,18.62694-9.45292,30.44272-9.45292,20.15607,0,31.55611,9.73108,31.55611,29.88715ZM1222.29911,82.71196v-10.2874h-20.57331c-13.20583,0-16.95948,5.14295-16.95948,11.39854,0,7.36823,6.11651,11.95486,16.26408,11.95486,10.00924,0,17.93229-4.58663,21.26871-13.066Z"/>
    <path class="cls-1" d="M1289.02739,70.89618l-15.29127,14.17864v20.15607h-13.34416V2.08619h13.34416v66.16748l40.17455-36.69756h16.12426l-30.99829,30.44347,34.05655,43.23131h-16.40242l-27.66337-34.33471Z"/>
    <path class="cls-1" d="M1409.27588,72.8418h-59.77281c1.66746,12.92842,12.09244,21.54686,26.68982,21.54686,8.61845,0,15.8461-2.91918,21.26721-8.89661l7.36823,8.61845c-6.67283,7.78397-16.81965,11.95486-29.05267,11.95486-23.77064,0-39.61823-15.70851-39.61823-37.67262,0-21.82353,15.70851-37.53204,36.97722-37.53204,21.26721,0,36.4194,15.29127,36.4194,37.94928,0,1.11264-.13908,2.7801-.27816,4.03181ZM1349.50307,63.2498h47.26312c-1.3908-12.3721-10.70464-21.12963-23.63156-21.12963-12.78934,0-22.24226,8.61845-23.63156,21.12963Z"/>
    <path class="cls-1" d="M1428.04714,2.08619h13.34416v103.1447h-13.34416V2.08619Z"/>
    <path class="cls-1" d="M1525.2159,60.74786v44.48303h-12.65026v-9.73108c-4.44756,6.67283-12.64876,10.56556-24.18788,10.56556-16.68057,0-27.24464-8.89661-27.24464-21.68594,0-11.81578,7.64489-21.54686,29.60899-21.54686h21.12963v-2.64102c0-11.25946-6.53375-17.79321-19.74033-17.79321-8.75753,0-17.65413,3.05825-23.3534,7.92454l-5.56019-10.00924c7.64489-6.11651,18.62769-9.45292,30.44347-9.45292,20.15607,0,31.55461,9.73108,31.55461,29.88715ZM1511.87174,82.71196v-10.2874h-20.5748c-13.20508,0-16.95873,5.14295-16.95873,11.39854,0,7.36823,6.11651,11.95486,16.26483,11.95486,10.00775,0,17.93229-4.58663,21.26871-13.066Z"/>
    <path class="cls-1" d="M1608.34659,60.74786v44.48303h-12.65026v-9.73108c-4.44756,6.67283-12.64876,10.56556-24.18788,10.56556-16.68057,0-27.24464-8.89661-27.24464-21.68594,0-11.81578,7.64489-21.54686,29.60899-21.54686h21.12963v-2.64102c0-11.25946-6.53375-17.79321-19.74033-17.79321-8.75753,0-17.65413,3.05825-23.3534,7.92454l-5.56019-10.00924c7.64489-6.11651,18.62769-9.45292,30.44347-9.45292,20.15607,0,31.55461,9.73108,31.55461,29.88715ZM1595.00243,82.71196v-10.2874h-20.5748c-13.20508,0-16.95873,5.14295-16.95873,11.39854,0,7.36823,6.11651,11.95486,16.26483,11.95486,10.00775,0,17.93229-4.58663,21.26871-13.066Z"/>
    <path class="cls-1" d="M1672.71052,30.86071v12.92842c-1.11114-.13908-2.0847-.13908-3.05825-.13908-14.31772,0-23.21432,8.75753-23.21432,24.88178v36.69906h-13.34416V31.55611h12.78784v12.3721c4.72721-8.61845,13.90197-13.0675,26.8289-13.0675Z"/>
  </g>
</svg>