<?xml version="1.0" encoding="UTF-8"?>
<svg id="Layer_2" data-name="Layer 2" xmlns="http://www.w3.org/2000/svg" viewBox="0 0 1672.71057 142.41319">
  <defs>
    <style>
      .cls-1 {
        fill: #fff;
      }
    </style>
  </defs>
  <g id="Layer_1-2" data-name="Layer 1-2">
    <g>
      <path class="cls-1" d="M83.8,5.81319v50h-.2c-19.6-21.7-28.5-26.6-35.1-25.5v68.3h14.2v3H1.3v-3h9.4V30.21319L0,20.91319,48.5,4.71319v23.6c10.8-14.2,23-23,31.7-23s2.4.2,3.6.6h0s0-.1,0-.1Z"/>
      <path class="cls-1" d="M182,84.71318c-7.89999,12.1-20.60001,18.9-38.10001,18.9-26.6,0-48.5-18.5-48.5-47.8S113.8,5.41319,144,5.41319s30,10.4,30,24.2-12.10001,29.5-34.7,37.9c10.8,10.6,24.39999,17.5,37,17.5s3.8-.2,5.5-.6l.2.2h0v.1ZM118.7,23.21319c0,15.7,8.1,31.5,19.39999,43.2,5.3-6.8,7.39999-14.3,7.39999-24,0-16.4-10.89999-30.4-19.1-30.4s-7.7,4.1-7.7,11.1c0,0,0,.1,0,.1Z"/>
      <path class="cls-1" d="M301.10001,50.21318c0,33.2-18.29999,53.4-43.79999,53.4s-16.2-2.6-22.60001-6.8v42.59999h15.10001v3h-62.3v-3h9.39999V29.81319l-10.8-9.2L234.60001,3.61319v18.7c10-10.2,21.70001-16.8,32.79999-16.8,19.10001,0,33.60001,15.5,33.60001,44.7,0,0,.10001,0,.10001,0ZM260.70001,60.91318c0-25.3-5.5-37.9-18.10001-37.9s-5.3.8-7.89999,1.9v68.7c2.60001,1.9,6,2.8,9.2,2.8,9.8,0,16.8-12.8,16.8-35.5Z"/>
      <path class="cls-1" d="M424.89999,50.21318c0,33.2-18.29999,53.4-43.79999,53.4s-16.20001-2.6-22.60001-6.8v42.59999h15.10001v3h-62.29999v-3h9.39999V29.81319l-10.79999-9.2,48.5-17v18.7c10-10.2,21.70001-16.8,32.79999-16.8,19.10001,0,33.60001,15.5,33.60001,44.7,0,0,.09998,0,.09998,0ZM384.5,60.91318c0-25.3-5.5-37.9-18.10001-37.9s-5.29999.8-7.89999,1.9v68.7c2.60001,1.9,6,2.8,9.20001,2.8,9.79999,0,16.79999-12.8,16.79999-35.5Z"/>
    </g>
  </g>
  <g>
    <path class="cls-1" d="M577.82086,78.95831c0,16.68057-12.65027,26.27258-37.25464,26.27258h-46.42938V7.92454h43.64929c22.38062,0,34.89105,9.45292,34.89105,25.15994,0,10.56556-5.42108,17.93229-13.06677,21.68594,10.98206,3.05825,18.21045,11.25946,18.21045,24.18788v.00002ZM508.03806,19.18401v31.13887h28.4971c14.17865,0,22.24152-5.28353,22.24152-15.56943,0-10.2874-8.06287-15.56943-22.24152-15.56943,0,0-28.4971,0-28.4971,0ZM563.78058,77.84567c0-11.25946-8.34027-16.26334-23.77063-16.26334h-31.97186v32.38909h31.97186c15.43036,0,23.77063-4.86629,23.77063-16.12575Z"/>
    <path class="cls-1" d="M663.73315,72.84179h-59.77429c1.66821,12.92842,12.09393,21.54686,26.68982,21.54686,8.61847,0,15.84686-2.91918,21.26874-8.89661l7.36749,8.61845c-6.67285,7.78397-16.82037,11.95486-29.05341,11.95486-23.77063,0-39.61749-15.70851-39.61749-37.67262,0-21.82353,15.70776-37.53204,36.97644-37.53204s36.4209,15.29127,36.4209,37.94928c0,1.11264-.1391,2.7801-.27814,4.03181h-.00006ZM603.95886,63.2498h47.26312c-1.39008-12.3721-10.70392-21.12963-23.63153-21.12963-12.78857,0-22.24152,8.61845-23.63153,21.12963h-.00006Z"/>
    <path class="cls-1" d="M752.0083,2.08619v103.1447h-12.78937v-11.6767c-5.97742,8.34029-15.42963,12.51118-26.27258,12.51118-21.54688,0-37.25464-15.1522-37.25464-37.67262,0-22.51893,15.70776-37.53204,37.25464-37.53204,10.42572,0,19.60052,3.89273,25.71698,11.81578V2.08619h13.34497ZM738.8017,68.39275c0-15.70702-10.70312-25.85534-24.74347-25.85534-14.17865,0-24.88251,10.14832-24.88251,25.85534,0,15.70851,10.70392,25.99591,24.88251,25.99591,14.04028,0,24.74347-10.2874,24.74347-25.99591Z"/>
    <path class="cls-1" d="M816.93005,30.86071v12.92842c-1.11261-.13908-2.08545-.13908-3.05823-.13908-14.31848,0-23.21509,8.75753-23.21509,24.88178v36.69906h-13.34491V31.55611h12.78937v12.3721c4.72644-8.61845,13.90045-13.0675,26.82892-13.0675h-.00006Z"/>
    <path class="cls-1" d="M830.9726,8.75902C830.9726,3.89273,834.86456,0,840.0083,0c5.14294,0,9.03571,3.75365,9.03571,8.48086,0,5.00387-3.75366,8.89661-9.03571,8.89661-5.14368,0-9.03571-3.75365-9.03571-8.61845ZM833.33545,31.55611h13.34491v73.67479h-13.34491V31.55611Z"/>
    <path class="cls-1" d="M846.68182,128.58429l4.3092-10.28591c2.64099,2.22378,6.53302,3.474,10.84222,3.474,7.09009,0,10.98206-4.44756,10.98206-12.92692V31.55611h13.34491v77.0112c0,15.01312-8.34027,24.46603-23.49249,24.46603-6.11652,0-12.23303-1.39079-15.9859-4.44905ZM870.45251,8.75902C870.45251,3.89273,874.34448,0,879.48743,0c5.14368,0,9.03571,3.75365,9.03571,8.48086,0,5.00387-3.75293,8.89661-9.03571,8.89661-5.14294,0-9.03491-3.75365-9.03491-8.61845Z"/>
    <path class="cls-1" d="M926.61371,25.16144v6.39467h21.40778v10.9813h-21.12964v62.69349h-13.34491v-62.69348h-12.51044v-10.9813h12.51044v-6.53375c0-14.31772,8.61847-23.77064,24.32697-23.77064,5.69928,0,11.25946,1.3908,15.01312,4.30997l-4.0318,10.14683c-2.78009-2.0847-6.39392-3.47549-10.28662-3.47549-7.92303,0-11.95483,4.44905-11.95483,12.92842h-.00006Z"/>
    <path class="cls-1" d="M951.36017,97.44692l5.56018-10.56556c6.25562,4.44905,16.2641,7.64639,25.85608,7.64639,12.37134,0,17.51508-3.75365,17.51508-10.00924,0-16.5415-46.56848-2.22378-46.56848-31.55461,0-13.20658,11.8158-22.10318,30.72089-22.10318,9.59198,0,20.435,2.50194,26.82892,6.67283l-5.69928,10.56407c-6.67206-4.30848-14.03955-5.83835-21.26794-5.83835-11.67743,0-17.37671,4.30997-17.37671,10.14832,0,17.37597,46.70758,3.19733,46.70758,31.83277,0,13.34566-12.23303,21.82502-31.8335,21.82502-12.23303,0-24.32623-3.75365-30.44275-8.61845h-.00006Z"/>
    <path class="cls-1" d="M1152.64795,62.83256v42.39833h-13.34497v-40.86846c0-14.4568-6.9502-21.54686-19.04419-21.54686-13.34497,0-22.10242,8.47937-22.10242,24.46604v37.94928h-13.34485v-40.86846c0-14.4568-6.95105-21.54686-19.04419-21.54686-13.34497,0-22.10315,8.47937-22.10315,24.46604v37.94928h-13.34485V31.55611h12.78931v10.9813c5.28198-7.50581,14.31775-11.6767,25.43884-11.6767,11.2594,0,20.7124,4.44905,25.57715,13.62232,5.56091-8.34029,15.84753-13.62232,28.35803-13.62232,17.93225,0,30.16528,10.2874,30.16528,31.97185Z"/>
    <path class="cls-1" d="M1235.64478,60.74786v44.48303h-12.65027v-9.73108c-4.4491,6.67283-12.65027,10.56556-24.18787,10.56556-16.68127,0-27.24609-8.89661-27.24609-21.68594,0-11.81578,7.64563-21.54686,29.60901-21.54686h21.12964v-2.64102c0-11.25946-6.53369-17.79321-19.73962-17.79321-8.75757,0-17.65417,3.05825-23.35339,7.92454l-5.56018-10.00924c7.64563-6.11651,18.62695-9.45292,30.44275-9.45292,20.15613,0,31.55615,9.73108,31.55615,29.88715h-.00012ZM1222.29907,82.71196v-10.2874h-20.57336c-13.20581,0-16.95947,5.14295-16.95947,11.39854,0,7.36823,6.11646,11.95486,16.26404,11.95486,10.00928,0,17.93225-4.58663,21.26868-13.066h.00012Z"/>
    <path class="cls-1" d="M1289.02734,70.89617l-15.29126,14.17864v20.15607h-13.34412V2.08619h13.34412v66.16748l40.17456-36.69756h16.12427l-30.99829,30.44347,34.05652,43.23132h-16.40247s-27.66333-34.33471-27.66333-34.33472Z"/>
    <path class="cls-1" d="M1409.27588,72.84179h-59.77283c1.66748,12.92842,12.09241,21.54686,26.68982,21.54686,8.61841,0,15.84607-2.91918,21.26721-8.89661l7.36829,8.61845c-6.67285,7.78397-16.8197,11.95486-29.05261,11.95486-23.77063,0-39.61829-15.70851-39.61829-37.67262,0-21.82353,15.7085-37.53204,36.97717-37.53204,21.26721,0,36.41943,15.29127,36.41943,37.94928,0,1.11264-.13904,2.7801-.2782,4.03181ZM1349.50305,63.2498h47.26306c-1.39075-12.3721-10.70459-21.12963-23.63159-21.12963-12.78931,0-22.24231,8.61845-23.63159,21.12963h.00012Z"/>
    <path class="cls-1" d="M1428.04712,2.08619h13.34412v103.1447h-13.34412V2.08619Z"/>
    <path class="cls-1" d="M1525.21594,60.74786v44.48303h-12.65027v-9.73108c-4.44751,6.67283-12.6488,10.56556-24.18787,10.56556-16.68054,0-27.24463-8.89661-27.24463-21.68594,0-11.81578,7.6449-21.54686,29.60901-21.54686h21.12964v-2.64102c0-11.25946-6.53369-17.79321-19.74036-17.79321-8.75757,0-17.65417,3.05825-23.35339,7.92454l-5.56018-10.00924c7.6449-6.11651,18.62769-9.45292,30.44348-9.45292,20.15613,0,31.55457,9.73108,31.55457,29.88714ZM1511.8717,82.71196v-10.2874h-20.57483c-13.20508,0-16.95874,5.14295-16.95874,11.39854,0,7.36823,6.11646,11.95486,16.26477,11.95486,10.00769,0,17.93225-4.58663,21.26868-13.066h.00012Z"/>
    <path class="cls-1" d="M1608.34656,60.74786v44.48303h-12.65027v-9.73108c-4.44751,6.67283-12.6488,10.56556-24.18787,10.56556-16.68054,0-27.24463-8.89661-27.24463-21.68594,0-11.81578,7.6449-21.54686,29.60901-21.54686h21.12964v-2.64102c0-11.25946-6.53369-17.79321-19.74036-17.79321-8.75757,0-17.65417,3.05825-23.35339,7.92454l-5.56018-10.00924c7.6449-6.11651,18.62769-9.45292,30.44348-9.45292,20.15613,0,31.55457,9.73108,31.55457,29.88714ZM1595.00244,82.71196v-10.2874h-20.57483c-13.20508,0-16.95874,5.14295-16.95874,11.39854,0,7.36823,6.11646,11.95486,16.26477,11.95486,10.00769,0,17.93225-4.58663,21.26868-13.066h.00012Z"/>
    <path class="cls-1" d="M1672.71057,30.86071v12.92842c-1.11108-.13908-2.08472-.13908-3.05823-.13908-14.31775,0-23.21436,8.75753-23.21436,24.88178v36.69906h-13.34412V31.55611h12.78784v12.3721c4.72717-8.61845,13.90198-13.0675,26.82886-13.0675Z"/>
  </g>
</svg>