<?xml version="1.0" encoding="UTF-8"?>
<svg id="Layer_2" data-name="Layer 2" xmlns="http://www.w3.org/2000/svg" viewBox="0 0 1265.40002 144.92">
  <g id="Layer_1-2" data-name="Layer 1-2">
    <g>
      <path d="M83.81,8.3v50.02h-.19c-19.63-21.71-28.5-26.61-35.11-25.48v68.33h14.16v3.02H1.32v-3.02h9.44V32.65L0,23.4,48.51,7.16v23.59c10.76-14.16,23.03-23.03,31.71-23.03,1.32,0,2.45.19,3.59.57v.01Z" fill="#fff"/>
      <path d="M181.96001,87.19c-7.92999,12.08-20.56999,18.87-38.13,18.87-26.61,0-48.50999-18.5-48.50999-47.75,0-27.56,18.5-50.4,48.7-50.4,17.74001,0,30.00999,10.38,30.00999,24.16,0,15.67-12.08,29.45-34.73,37.94,10.75999,10.57,24.35001,17.55,36.99001,17.55,1.89,0,3.78-.19,5.47-.57l.19.19.00999.01ZM118.72,25.66c0,15.67,8.12,31.52,19.44,43.22001,5.28999-6.8,7.36-14.34,7.36-23.97,0-16.42-10.95-30.39-19.06-30.39-4.91,0-7.74,4.15-7.74001,11.14Z" fill="#fff"/>
      <path d="M301.06,52.65c0,33.22-18.31,53.42-43.79001,53.42-8.67999,0-16.23-2.64-22.64999-6.79v42.63h15.10001v3.02h-62.29001v-3.02h9.44V32.27l-10.75999-9.25,48.50999-16.99v18.69c10-10.19,21.70999-16.8,32.84-16.8,19.06,0,33.60001,15.48,33.60001,44.73ZM260.67001,63.41c0-25.29-5.47-37.94-18.12-37.94-2.83,0-5.28.75-7.92999,1.89v68.7c2.64,1.89,6.03999,2.83,9.25,2.83,9.82001,0,16.79999-12.84,16.79999-35.48Z" fill="#fff"/>
      <path d="M424.88,52.65c0,33.22-18.31,53.42-43.79001,53.42-8.67999,0-16.23001-2.64-22.64999-6.79v42.63h15.10001v3.02h-62.29001v-3.02h9.44V32.27l-10.76001-9.25,48.51001-16.99v18.69c10-10.19,21.70999-16.8,32.84-16.8,19.06,0,33.60001,15.48,33.60001,44.73ZM384.48001,63.41c0-25.29-5.47-37.94-18.12-37.94-2.82999,0-5.28.75-7.92999,1.89v68.7c2.64001,1.89,6.04001,2.83,9.25,2.83,9.82001,0,16.79999-12.84,16.79999-35.48Z" fill="#fff"/>
    </g>
  </g>
  <g>
    <path d="M492.23438,10.79141h38.85806c30.54099,0,51.12871,19.63324,51.12871,47.7202s-20.58773,47.7202-51.12871,47.7202h-38.85806V10.79141ZM530.54687,97.50581c25.36014,0,41.72151-16.08859,41.72151-38.9942s-16.36137-38.9942-41.72151-38.9942h-28.2231v77.9884h28.2231Z" fill="#fff"/>
    <path d="M665.24882,73.37293h-59.99085c1.09063,14.99747,12.54343,24.95072,28.2231,24.95072,8.726,0,16.49702-3.13524,21.95163-9.4077l5.45362,6.27246c-6.4086,7.63488-16.36186,11.72509-27.67803,11.72509-22.36055,0-37.6308-15.27074-37.6308-36.54017s14.86132-36.40353,35.04013-36.40353,34.76735,14.86132,34.76735,36.40353c0,.81834-.13614,1.90897-.13614,2.99959ZM605.25797,66.14697h50.85643c-1.22726-14.04348-11.45379-23.86059-25.49678-23.86059-13.90684,0-24.13288,9.81712-25.35965,23.86059Z" fill="#fff"/>
    <path d="M802.67561,10.79141v95.44039h-9.95326v-44.0389h-59.71856v44.0389h-10.0894V10.79141h10.0894v42.53886h59.71856V10.79141h9.95326Z" fill="#fff"/>
    <path d="M824.48517,70.37334c0-21.26943,15.54303-36.40353,36.54066-36.40353s36.40353,15.1341,36.40353,36.40353-15.40688,36.54017-36.40353,36.54017-36.54066-15.27074-36.54066-36.54017ZM887.61225,70.37334c0-16.77029-11.31568-27.95032-26.58642-27.95032s-26.72355,11.18003-26.72355,27.95032,11.45281,27.95032,26.72355,27.95032,26.58642-11.17953,26.58642-27.95032Z" fill="#fff"/>
    <path d="M928.23919,26.06165v8.45322h22.08678v8.18093h-21.8145v63.536h-9.67999v-63.536h-12.8172v-8.18093h12.8172v-8.86214c0-12.81621,7.63488-21.26943,21.67835-21.26943,5.31748,0,10.7711,1.49955,14.31576,4.49914l-3.27237,7.22595c-2.72681-2.3174-6.54376-3.54466-10.63496-3.54466-8.31658,0-12.67908,4.63578-12.67908,13.49792Z" fill="#fff"/>
    <path d="M1092.66378,64.64693v41.58487h-9.67999v-40.63039c0-15.1341-7.63488-22.90562-20.58822-22.90562-14.72518,0-23.99575,9.54384-23.99575,25.90521v37.6308h-9.68097v-40.63039c0-15.1341-7.63488-22.90562-20.72436-22.90562-14.58805,0-23.99575,9.54384-23.99575,25.90521v37.6308h-9.68097V34.51487h9.27156v13.08899c5.04421-8.58936,14.31576-13.63406,26.31413-13.63406,11.86222,0,21.13378,5.0447,25.49628,15.1341,5.18134-9.27156,15.40688-15.1341,28.35924-15.1341,17.45199,0,28.9048,10.0894,28.9048,30.67713Z" fill="#fff"/>
    <path d="M1173.0998,61.78398v44.44783h-9.27156v-11.18052c-4.36349,7.36259-12.81621,11.86222-24.67844,11.86222-16.22473,0-26.17799-8.45371-26.17799-20.86051,0-11.04438,7.0903-20.31544,27.67754-20.31544h22.76947v-4.363c0-12.27065-6.95317-18.95154-20.31495-18.95154-9.27156,0-17.99755,3.27237-23.85961,8.45322l-4.36349-7.22595c7.22645-6.13582,17.86141-9.68048,29.17709-9.68048,18.54311,0,29.04193,9.27106,29.04193,27.81417ZM1163.41883,84.68959v-11.72559h-22.4962c-13.90733,0-18.40697,5.45313-18.40697,12.81671,0,8.31658,6.68089,13.49792,18.13369,13.49792,10.90823,0,18.95253-5.18134,22.76947-14.58904Z" fill="#fff"/>
    <path d="M1265.40002,64.64693v41.58487h-9.67999v-40.63039c0-15.1341-7.90815-22.90562-21.54221-22.90562-15.40688,0-25.08687,9.54384-25.08687,25.90521v37.6308h-9.68097V34.51487h9.27156v13.22563c5.18134-8.726,14.86132-13.7707,27.26911-13.7707,17.45199,0,29.44937,10.0894,29.44937,30.67713Z" fill="#fff"/>
  </g>
</svg>